<?xml version="1.0" encoding="utf-8"?>
<!-- Generator: Adobe Illustrator 24.0.2, SVG Export Plug-In . SVG Version: 6.00 Build 0)  -->
<svg version="1.1" id="Layer_1" xmlns="http://www.w3.org/2000/svg" xmlns:xlink="http://www.w3.org/1999/xlink" x="0px" y="0px"
	 viewBox="0 0 217 237" style="enable-background:new 0 0 217 237;" xml:space="preserve">
<style type="text/css">
	.st0{fill-rule:evenodd;clip-rule:evenodd;fill:#FFFFFF;}
	.st1{filter:url(#Adobe_OpacityMaskFilter);}
	.st2{mask:url(#b_1_);}
	.st3{fill-rule:evenodd;clip-rule:evenodd;fill:#D0C6AC;}
	.st4{filter:url(#Adobe_OpacityMaskFilter_1_);}
	.st5{mask:url(#f_1_);}
	.st6{fill-rule:evenodd;clip-rule:evenodd;fill:#FFDBB4;}
	.st7{filter:url(#Adobe_OpacityMaskFilter_2_);}
	.st8{mask:url(#f_2_);fill-rule:evenodd;clip-rule:evenodd;fill-opacity:0.1;}
	.st9{fill-rule:evenodd;clip-rule:evenodd;fill:#B7C1DB;}
	.st10{filter:url(#Adobe_OpacityMaskFilter_3_);}
	.st11{mask:url(#h_1_);}
	.st12{fill-rule:evenodd;clip-rule:evenodd;fill:#293347;}
	.st13{filter:url(#Adobe_OpacityMaskFilter_4_);}
	.st14{mask:url(#h_2_);fill-rule:evenodd;clip-rule:evenodd;fill:#293347;}
	.st15{filter:url(#Adobe_OpacityMaskFilter_5_);}
	.st16{mask:url(#h_3_);fill-rule:evenodd;clip-rule:evenodd;fill-opacity:0.16;}
	.st17{fill-rule:evenodd;clip-rule:evenodd;fill-opacity:0.7;}
	.st18{filter:url(#Adobe_OpacityMaskFilter_6_);}
	.st19{mask:url(#j_1_);fill-rule:evenodd;clip-rule:evenodd;fill-opacity:0.7;}
	.st20{filter:url(#Adobe_OpacityMaskFilter_7_);}
	.st21{mask:url(#j_2_);}
	.st22{fill-rule:evenodd;clip-rule:evenodd;fill:#FF4F6D;}
	.st23{fill-rule:evenodd;clip-rule:evenodd;fill-opacity:0.16;}
	.st24{fill-rule:evenodd;clip-rule:evenodd;fill-opacity:0.6;}
</style>
<title>mf-avatar</title>
<g transform="translate(10.8 36)">
	<g>
		<circle id="a_1_" class="st0" cx="98" cy="93" r="108"/>
	</g>
	<defs>
		<filter id="Adobe_OpacityMaskFilter" filterUnits="userSpaceOnUse" x="-10" y="-15" width="216.4" height="216">
			<feColorMatrix  type="matrix" values="1 0 0 0 0  0 1 0 0 0  0 0 1 0 0  0 0 0 1 0"/>
		</filter>
	</defs>
	<mask maskUnits="userSpaceOnUse" x="-10" y="-15" width="216.4" height="216" id="b_1_">
		<g class="st1">
			<circle id="a_2_" class="st0" cx="98" cy="93" r="108"/>
		</g>
	</mask>
	<g class="st2">
		<path class="st0" d="M-10-15h216.4v216H-10V-15z"/>
	</g>
</g>
<g transform="translate(28.8 32.4)">
	<g>
		<path id="e_1_" class="st3" d="M80-15c27.8,0,50.4,22.6,50.4,50.4V41c5.1,0.9,9,5.3,9,10.6v12.6c0,5.4-4,10-9.3,10.7
			c-1.9,17.8-13,32.9-28.5,40.3l0,16.6h3.6c35.8,0,64.8,29,64.8,64.8v8.1H-10v-8.1c0-35.8,29-64.8,64.8-64.8h3.6v-16.6
			c-15.5-7.4-26.7-22.4-28.5-40.3c-5.2-0.7-9.3-5.2-9.3-10.7V51.6c0-5.4,3.9-9.8,9-10.7v-5.5C29.6,7.6,52.2-15,80-15z"/>
	</g>
	<defs>
		<filter id="Adobe_OpacityMaskFilter_1_" filterUnits="userSpaceOnUse" x="-38.8" y="-15" width="238.4" height="220.4">
			<feColorMatrix  type="matrix" values="1 0 0 0 0  0 1 0 0 0  0 0 1 0 0  0 0 0 1 0"/>
		</filter>
	</defs>
	<mask maskUnits="userSpaceOnUse" x="-38.8" y="-15" width="238.4" height="220.4" id="f_1_">
		<g class="st4">
			<path id="e_2_" class="st0" d="M80-15c27.8,0,50.4,22.6,50.4,50.4V41c5.1,0.9,9,5.3,9,10.6v12.6c0,5.4-4,10-9.3,10.7
				c-1.9,17.8-13,32.9-28.5,40.3l0,16.6h3.6c35.8,0,64.8,29,64.8,64.8v8.1H-10v-8.1c0-35.8,29-64.8,64.8-64.8h3.6v-16.6
				c-15.5-7.4-26.7-22.4-28.5-40.3c-5.2-0.7-9.3-5.2-9.3-10.7V51.6c0-5.4,3.9-9.8,9-10.7v-5.5C29.6,7.6,52.2-15,80-15z"/>
		</g>
	</mask>
	<g class="st5">
		<path class="st6" d="M-38.8-15h238.4v220.4H-38.8V-15z"/>
	</g>
	<defs>
		<filter id="Adobe_OpacityMaskFilter_2_" filterUnits="userSpaceOnUse" x="29.6" y="69.6" width="100.8" height="57.6">
			<feColorMatrix  type="matrix" values="1 0 0 0 0  0 1 0 0 0  0 0 1 0 0  0 0 0 1 0"/>
		</filter>
	</defs>
	<mask maskUnits="userSpaceOnUse" x="29.6" y="69.6" width="100.8" height="57.6" id="f_2_">
		<g class="st7">
			<path id="e_3_" class="st0" d="M80-15c27.8,0,50.4,22.6,50.4,50.4V41c5.1,0.9,9,5.3,9,10.6v12.6c0,5.4-4,10-9.3,10.7
				c-1.9,17.8-13,32.9-28.5,40.3l0,16.6h3.6c35.8,0,64.8,29,64.8,64.8v8.1H-10v-8.1c0-35.8,29-64.8,64.8-64.8h3.6v-16.6
				c-15.5-7.4-26.7-22.4-28.5-40.3c-5.2-0.7-9.3-5.2-9.3-10.7V51.6c0-5.4,3.9-9.8,9-10.7v-5.5C29.6,7.6,52.2-15,80-15z"/>
		</g>
	</mask>
	<path class="st8" d="M29.6,69.6C29.6,97.4,52.2,120,80,120s50.4-22.6,50.4-50.4v7.2c0,27.8-22.6,50.4-50.4,50.4
		s-50.4-22.6-50.4-50.4L29.6,69.6z"/>
</g>
<g transform="translate(0 153)">
	<g>
		<path id="g_1_" class="st9" d="M130.4-3.2c16.3,1.8,28.8,6.8,28.8,19.8l0-0.4c23.3,9.8,39.6,32.9,39.6,59.7V84h-180v-8.1
			C18.8,49,35.1,26,58.4,16.2C58.7,3.5,71.1-1.4,87.2-3.2v17c0,11.9,9.7,21.6,21.6,21.6s21.6-9.7,21.6-21.6L130.4-3.2z"/>
	</g>
	<defs>
		<filter id="Adobe_OpacityMaskFilter_3_" filterUnits="userSpaceOnUse" x="-10" y="-15" width="238.5" height="99">
			<feColorMatrix  type="matrix" values="1 0 0 0 0  0 1 0 0 0  0 0 1 0 0  0 0 0 1 0"/>
		</filter>
	</defs>
	<mask maskUnits="userSpaceOnUse" x="-10" y="-15" width="238.5" height="99" id="h_1_">
		<g class="st10">
			<path id="g_2_" class="st0" d="M130.4-3.2c16.3,1.8,28.8,6.8,28.8,19.8l0-0.4c23.3,9.8,39.6,32.9,39.6,59.7V84h-180v-8.1
				C18.8,49,35.1,26,58.4,16.2C58.7,3.5,71.1-1.4,87.2-3.2v17c0,11.9,9.7,21.6,21.6,21.6s21.6-9.7,21.6-21.6L130.4-3.2z"/>
		</g>
	</mask>
	<g class="st11">
		<path class="st12" d="M-10-15h238.5v99H-10V-15z"/>
	</g>
	<defs>
		<filter id="Adobe_OpacityMaskFilter_4_" filterUnits="userSpaceOnUse" x="-10" y="-15" width="0" height="0">
			<feColorMatrix  type="matrix" values="1 0 0 0 0  0 1 0 0 0  0 0 1 0 0  0 0 0 1 0"/>
		</filter>
	</defs>
	<mask maskUnits="userSpaceOnUse" x="-10" y="-15" width="0" height="0" id="h_2_">
		<g class="st13">
			<path id="g_3_" class="st0" d="M130.4-3.2c16.3,1.8,28.8,6.8,28.8,19.8l0-0.4c23.3,9.8,39.6,32.9,39.6,59.7V84h-180v-8.1
				C18.8,49,35.1,26,58.4,16.2C58.7,3.5,71.1-1.4,87.2-3.2v17c0,11.9,9.7,21.6,21.6,21.6s21.6-9.7,21.6-21.6L130.4-3.2z"/>
		</g>
	</mask>
	<path class="st14" d="M-10-15"/>
	<defs>
		<filter id="Adobe_OpacityMaskFilter_5_" filterUnits="userSpaceOnUse" x="49" y="-3.5" width="119.7" height="49.7">
			<feColorMatrix  type="matrix" values="1 0 0 0 0  0 1 0 0 0  0 0 1 0 0  0 0 0 1 0"/>
		</filter>
	</defs>
	<mask maskUnits="userSpaceOnUse" x="49" y="-3.5" width="119.7" height="49.7" id="h_3_">
		<g class="st15">
			<path id="g_4_" class="st0" d="M130.4-3.2c16.3,1.8,28.8,6.8,28.8,19.8l0-0.4c23.3,9.8,39.6,32.9,39.6,59.7V84h-180v-8.1
				C18.8,49,35.1,26,58.4,16.2C58.7,3.5,71.1-1.4,87.2-3.2v17c0,11.9,9.7,21.6,21.6,21.6s21.6-9.7,21.6-21.6L130.4-3.2z"/>
		</g>
	</mask>
	<path class="st16" d="M145.7-3.5c13.5,2.6,22.9,7.7,22.9,17.6c0,17.7-29.7,32.1-59.8,32.1S49,31.8,49,14.1C49,4.1,58.3-1,71.9-3.5
		c-8.2,3-13.5,8.1-13.5,16.5c0,18.4,25,33.2,50.4,33.2s50.4-14.9,50.4-33.2c0-8.3-5.1-13.3-13-16.3L145.7-3.5z"/>
</g>
<g transform="translate(70.2 120.6)">
	<g>
		<path id="i_1_" class="st17" d="M21.6-1.4c1,8.5,8.2,15.2,17,15.2c8.8,0,16.1-6.7,17-15.3c0.1-0.7-0.7-1.8-1.7-1.8H23.4
			C22.4-3.3,21.5-2.2,21.6-1.4z"/>
	</g>
	<defs>
		<filter id="Adobe_OpacityMaskFilter_6_" filterUnits="userSpaceOnUse" x="-10" y="-15" width="0" height="0">
			<feColorMatrix  type="matrix" values="1 0 0 0 0  0 1 0 0 0  0 0 1 0 0  0 0 0 1 0"/>
		</filter>
	</defs>
	<mask maskUnits="userSpaceOnUse" x="-10" y="-15" width="0" height="0" id="j_1_">
		<g class="st18">
			<path id="i_2_" class="st0" d="M21.6-1.4c1,8.5,8.2,15.2,17,15.2c8.8,0,16.1-6.7,17-15.3c0.1-0.7-0.7-1.8-1.7-1.8H23.4
				C22.4-3.3,21.5-2.2,21.6-1.4z"/>
		</g>
	</mask>
	<path class="st19" d="M-10-15"/>
	<defs>
		<filter id="Adobe_OpacityMaskFilter_7_" filterUnits="userSpaceOnUse" x="24.2" y="6.6" width="28.8" height="19.8">
			<feColorMatrix  type="matrix" values="1 0 0 0 0  0 1 0 0 0  0 0 1 0 0  0 0 0 1 0"/>
		</filter>
	</defs>
	<mask maskUnits="userSpaceOnUse" x="24.2" y="6.6" width="28.8" height="19.8" id="j_2_">
		<g class="st20">
			<path id="i_3_" class="st0" d="M21.6-1.4c1,8.5,8.2,15.2,17,15.2c8.8,0,16.1-6.7,17-15.3c0.1-0.7-0.7-1.8-1.7-1.8H23.4
				C22.4-3.3,21.5-2.2,21.6-1.4z"/>
		</g>
	</mask>
	<g class="st21">
		<g transform="translate(34.2 21.6)">
			<circle class="st22" cx="-0.1" cy="-5.1" r="9.9"/>
			<circle class="st22" cx="8.9" cy="-5.1" r="9.9"/>
		</g>
	</g>
</g>
<path class="st23" d="M98,102c0,4,4.8,7.2,10.8,7.2c6,0,10.8-3.2,10.8-7.2"/>
<g>
	<path class="st24" d="M72.9,86.2c1.7-3.4,5.4-5.8,9.8-5.8c4.3,0,8.1,2.4,9.7,5.8c0.5,1-0.2,1.8-0.9,1.2c-2.2-1.9-5.3-3.1-8.8-3.1
		c-3.4,0-6.4,1.1-8.6,2.9C73.3,87.9,72.5,87.2,72.9,86.2z M125.1,86.2c1.7-3.4,5.4-5.8,9.8-5.8c4.3,0,8.1,2.4,9.7,5.8
		c0.5,1-0.2,1.8-0.9,1.2c-2.2-1.9-5.3-3.1-8.8-3.1c-3.4,0-6.4,1.1-8.6,2.9C125.5,87.9,124.7,87.2,125.1,86.2L125.1,86.2z"/>
</g>
<g>
	<path class="st24" d="M82.3,64.3c-5.2,0.2-13.7,4-13.5,9.3c0,0.2,0.3,0.2,0.4,0.1c2.5-2.7,20.1-5.4,26.3-3.9c0.6,0.1,1-0.4,0.6-0.8
		C93.1,65.5,87,64.1,82.3,64.3 M136.2,64.3c5.2,0.2,13.7,4,13.5,9.3c0,0.2-0.3,0.2-0.4,0.1c-2.5-2.7-20.1-5.4-26.3-3.9
		c-0.6,0.1-1-0.4-0.6-0.8C125.4,65.5,131.5,64.1,136.2,64.3"/>
</g>
</svg>
