<svg xmlns="http://www.w3.org/2000/svg" viewBox="0 0 573.46 480.39"><defs><style>.cls-1{fill:#fff;}.cls-2{fill:#010101;}.cls-3{fill:#f5c8b0;}.cls-4{fill:#03558b;}.cls-5{fill:#e8122e;}.cls-6{fill:#ffc44d;}</style></defs><title>Asset 1</title><g id="Layer_2" data-name="Layer 2"><g id="Layer_1-2" data-name="Layer 1"><path class="cls-1" d="M131.78,17.45A24.05,24.05,0,0,1,151.52,6.89c4.42,0,10.09.07,12.45,4.55a12.74,12.74,0,0,1-.74,9.37c-2.79,6.3-7.24,11.72-9.83,18.11a41.18,41.18,0,0,0-4.05,19.3A9.08,9.08,0,0,0,145.78,55c8.31,15.24,5.13,34.33-3.17,48.89,3-2.3,5.08-5.42,7-8.56,5.23,8.24,1.53,18.82-3.94,25.94-3.46,4.42-7.8,8.44-13.23,10.24a17.87,17.87,0,0,1-17-1.75c7.62-1.8,14.32-6.57,19.38-12.43,2-2.38,3.82-5.09,4.29-8.23-6.9,11.44-20.43,18.4-33.73,17.89-12.32-.54-24.21-4.15-36-7.53-15.11-4.49-30.68-7.12-46-10.59-3.33-.57-6.53-3.27-6.7-6.79.1-4.43,4.31-7.17,7.91-8.86,11.84-5,25.21-4.87,37.62-2.28a41.2,41.2,0,0,0,1,8.93l.48-.36c1.7-12.63,7.06-24.6,14.4-34.93a8.71,8.71,0,0,0,1.16-2.42C76,63.59,74.62,67.39,71.54,69c-19.7,3.87-41,2.91-59,12.86,3.18-6.71,10.47-9.64,17-12,13.21-5.12,27.21-7.56,41-10.78,18.94-4.48,38.22-9.17,55.28-18.85l2.18-.29-.63,2q.87-1,1.68-2.1l-1.27-.12C126.1,32.16,127.29,23.9,131.78,17.45ZM100.44,69.56c3.63.49,7.28-.34,10.91.14,8.8.47,18.25,3.35,23.68,10.73,4.61,6,4.7,13.81,4.88,21,1.21-4.48,2.1-9.27.88-13.85C138.67,79.48,132.09,73,124.37,70,116.8,66.64,108.21,67.4,100.44,69.56Z"/><path class="cls-1" d="M22.48,80.4c15.42-5.37,31.94-5.74,47.82-9C67.47,77.05,64.38,82.73,63.09,89c-14.43-3.67-30.81-4-44,3.77-5.06,2.82-7.46,10.62-2.87,14.91-4.52,0-9.35-1.86-12-5.63-2.43-3.69-1-8.53,1.78-11.6C10.3,85.53,16.44,82.67,22.48,80.4Z"/><path class="cls-1" d="M260.6,112c1.78-1.93,4-4.06,6.79-4,2.66.55,3.51,3.57,3.57,5.93.29,7.2-1.83,14.21-3.83,21-1.42,3.43-2.11,7.23-4.36,10.25.34-2.82.91-7.86-3.17-8-7.13,1.65-10.44,10.43-8.83,17.06-2.25,1.61-2.45-1.38-2.73-2.74a35.2,35.2,0,0,1,.06-12.07C250,129.58,253.84,119.71,260.6,112Z"/><path class="cls-1" d="M290.56,121.06a8.91,8.91,0,0,1,6-2.78l2,1.76c1.35,4.95.56,10.11-.57,15a55.79,55.79,0,0,1-13.08,24.55c-1.93,1.84-3.86,3.89-6.49,4.68l-.44-1.36c3.57-4.74,8-11.2,4.72-17.21-3.47-2-6.45.95-8.36,3.56.7-3.66,2.52-7,4.08-10.32C281.74,132.54,285.43,126.19,290.56,121.06Z"/><path class="cls-1" d="M84.39,190.62c14.19-4.83,31.48,1.86,37.91,15.6l-3.08.36c-3-2.53-5.64-5.72-9.29-7.43,2.17,5,6.67,8.37,11,11.4,1.51,1.68,3.76,2.12,5.61,3.29-1.43-2.15-3.63-3.58-5.3-5.51,11.41.39,23.43,5.25,29.64,15.26,5.84,9.24,5.57,21.07,2,31.09l-.83.11a19,19,0,0,0-14.65-9c-9.08-.79-17.79,5.38-21.23,13.61-6,12.42-.7,29.74,12.3,35.22l-.24.67c-13.62,6.23-29.72,4.18-42.79-2.46-10.29-5.52-19.66-13.78-24.27-24.73a25.58,25.58,0,0,1-1-18.14c1.09,2.6,2.06,5.37,4.33,7.21-3.76-11.95-4.34-25.18.12-37,1.25-2.89,2.52-6,5-8,1.37,5.19,2.72,11.11,6.78,14.87-1.19-5.68-3.08-11.21-3.83-17C71.39,201.94,76.42,193.05,84.39,190.62Zm8.21,42.43c-.5,2.89,1.9,5.21,3.21,7.57,4.38,5.81,9,12.09,15.6,15.42-5.4-5.3-9.79-11.46-14.23-17.56A20.61,20.61,0,0,0,92.6,233.05Zm-16,21.1c1.2,3.4,4.86,5.14,7.65,7.13,7.37,4.25,15.72,7.8,24.39,7.31-9.92-1.1-18.5-6.83-26.83-11.91C80.06,255.78,78.53,254.38,76.55,254.15ZM83,275.38c.57,3.34,4.22,4.4,7,5.18,6,1.49,12.53,2,18.51.14-4.66-.3-9.38-.34-13.94-1.45C90.6,278.41,86.9,276.6,83,275.38Z"/><path class="cls-1" d="M208.81,225.58l2.79-.25A48.37,48.37,0,0,0,200.76,240c.59-5.47,4.16-10.37,8.57-13.48Z"/><path class="cls-1" d="M221.24,239.75l1.16-1.5c-.91,2.34-3.49,2.86-5.47,3.95-6.38,3.48-12.21,7.85-18.56,11.37A66.11,66.11,0,0,1,221.24,239.75Z"/><path class="cls-1" d="M124.17,252.83c5.25-4.8,13.48-5.22,19.73-2.23,4.6,2.78,8.33,7.58,8.36,13.14A37.09,37.09,0,0,0,138.34,262c-5.75.64-9.14,6.69-9.42,12-.73,7.94,4.41,15.5,11.48,18.77-2.92,1.83-6.64,1-9.75.18-9.66-3.78-15.45-14.74-14.28-24.88C117.08,262.35,119.41,256.4,124.17,252.83Z"/><path class="cls-1" d="M241.86,260.39c2.83-1.13,5.76-2.57,8.9-2.17-8.78,2.44-16.42,7.59-24.16,12.2.77,1.76,3.4.36,4.89.46,3.31-.51,6.45-1.75,9.68-2.61-.19,1.15-1.69,1.16-2.44,1.66A29.44,29.44,0,0,1,224,272.34c-7.63,5-14.71,11.23-23.37,14.45C214.53,278.25,227,267.39,241.86,260.39Z"/><path class="cls-1" d="M244.59,310.09c3.64-1.7,7.69,0,10.92,1.8,8.11,5.46,15.51,12.6,19.67,21.57,1.34,3.05,2.65,7.56-.49,9.94-3.27,1.76-7.05,0-10.1-1.46a62.11,62.11,0,0,1-16.84-14.29c-2.88-4-6-8.44-5.52-13.61A4.71,4.71,0,0,1,244.59,310.09Z"/><path class="cls-1" d="M212.35,320.08c2.86-.69,4.68,1.87,6.55,3.51a76.9,76.9,0,0,1,11.32,14.58c.93,2,2.45,4.17,2.07,6.53-2.17,1.14-4.27-.57-6.14-1.53-3.78-2.12-6-6-8.73-9.18A25.71,25.71,0,0,1,212.35,320.08Z"/><path class="cls-2" d="M215.15,0H229a44.37,44.37,0,0,1,33.94,55.09c-2.39,9.46-8,17.64-14.58,24.72,18.9-3.06,39-.85,56,8.29a88.09,88.09,0,0,1,23.09,17.84c0-2.14-.13-4.29-.08-6.43-2-.27-1.43-1.47-.05-2,0-9.79,2.9-19.81,9.1-27.5a37.45,37.45,0,0,1,27-13.88A45.22,45.22,0,0,1,397.88,69.6c8.36,8,13.56,19,15.6,30.27,3.06,17.14-3.78,35.8-17.61,46.48a39.9,39.9,0,0,1-25.37,8.78c-10,0-19.41-4.4-27.09-10.53,4.08,21.06,1.93,45-12.16,62.12-2.82,11-11.22,19.51-20.54,25.46a74.16,74.16,0,0,1-41.95,11.07c-3.63,5.24-3.44,12.29-.77,17.9,1.84,3.74,5.11,6.47,8.21,9.13,11.86,9.4,26.42,14.23,39.56,21.45,2.08,1.07,3.8,3,6.23,3.25-2.19-12.1,2.14-24.57,9.19-34.35,11.54-16.22,30.05-26.42,49.26-30.55a118.57,118.57,0,0,1,57.46,2.42c14.28,4.26,27.41,12.83,36.24,24.93a63,63,0,0,1,11.16,26c20.17-1.09,40.3,3.39,58.94,10.89,10.47,4.22,20.6,9.52,29.22,16.89v.66a135.56,135.56,0,0,0-30.92-15.65C524.4,290,505.23,285.66,486,286.63c2.06,14.69-3.33,30.47-14.84,40.05-8.38,7.5-19.59,10.93-30.66,11.47-16.11,1-32.09-2.32-47.93-4.37-6.12,4.29-13.64,6-21,6.72a36.1,36.1,0,0,1-16,19.59c-4.8,3-10.74,2.88-16.18,2.42-10.12-.63-20-3.16-30-4.65a183.28,183.28,0,0,0-19.94,5c-7.91,6.71-12.21,16.5-18.1,24.83-1.45,1.82-3.82,2.46-6,2.89-7.32.72-14.67-.52-21.69-2.52-11.36,9.28-20.69,20.74-28.79,32.89,1.25,6,2.24,12.33.09,18.22a19.6,19.6,0,0,1-12.32,12.18c-2.35,6-4.73,12.06-8.78,17.13a30.26,30.26,0,0,1-22.48,11.7c-12.09,1.25-24.14-2.66-34.44-8.78-17.19-10.3-30.44-26.21-40.09-43.57-9.95-18.15-16-39.09-13.71-59.9,2.14-17.75,11.17-35,25.61-45.74a41.66,41.66,0,0,1,32.61-7.52c16,3,29.24,14.74,36.54,28.92,8.27,15.52,9.65,33.91,6.58,51l3.13.52c6.64-7.11,13.43-14.15,21.23-20l-2.23-1.93c-.93.11-1.87.08-2.79.25l-1.2-2.27c-2.65-2.07-5.8-4.09-6.67-7.56-1-3,1.31-5.76,3.52-7.45,6.59-5.06,14.48-7.94,22-11.3-11.54-13.6-20.93-29.47-24.73-47-.67-2.77-.83-5.63-1.61-8.36-15.84,7.43-34.36,9.43-51.27,4.65a19.61,19.61,0,0,1-12.56,1.69c-12.42,8.73-29.08,7.79-42.61,2.27-12-5.1-23.06-13.52-29.05-25.28-4.13-8-5.19-17.81-1.83-26.3,1.81-3.94.17-8.3.5-12.44-.09-9.76,3.2-20.06,11-26.38,0-7.93,4.3-15.78,11.62-19.17,16.14-7.94,37.54,1,43.85,17.71,13.31.15,26.41,8.42,31.32,20.95,3.92,9.18,2.78,19.89-1.5,28.74-1.56,2.5,0,5.31.39,7.94a94.68,94.68,0,0,0,17.89.88c-2.52,1.94-5.56,2.95-8.45,4.2a28.88,28.88,0,0,0,6.16-2c.91-.65,2.89-.78,2.39-2.42,7.29-.7,13.46-5.42,20.14-8.12,1.69-4.14,3.56-8.18,5.53-12.19-10.9-22-25.32-42-39.23-62.14-11.47-15.77-22.72-31.76-35.45-46.54-3.44-1.12-7.13-1.79-10.07-4.05-2-1.87-4.87-1-7.33-1.15-14.87.19-29-4.83-43.18-8.77-13.62-3.56-27.6-5.77-41-10-4.24-2.23-9.29-.55-13.55-2.7C4,106.93-.29,102.5,0,97.05c0-6.2,5.12-10.67,10-13.61a18.55,18.55,0,0,1,8-11.74c7.9-5.21,17.25-7.34,26.2-10C71.34,54,100.33,51.45,125.36,37.64c-.19-3.25-1.07-6.49-.57-9.75C126.46,16.93,135,7.08,146,4.67c5.13-1.08,10.78-1.22,15.57,1.2A10.18,10.18,0,0,1,167.14,16c-.71,6.11-4.23,11.3-7.13,16.55-5.7,9.64-10.13,21-7.72,32.39A49.1,49.1,0,0,1,151,92.53c2.15,3.8,3.92,8,3.91,12.44.08,2.52-.69,5.16.37,7.58a172.89,172.89,0,0,0,24,44.15c1.92-1.85,2.64-5.22,4.7-7.27,1-13.46,7.75-25.65,15.5-36.39,5.16-6.68,10.81-13.26,18-17.83A39.42,39.42,0,0,1,198,91.56c-12.09-5.65-20.72-17.51-23.51-30.44-2.69-11.46-.52-23.8,5.16-34C187.36,14,199.94,3,215.15,0ZM131.78,17.45c-4.49,6.45-5.68,14.71-4.07,22.33l1.27.12Q128.17,41,127.3,42l.63-2-2.18.29C108.69,50,89.41,54.65,70.47,59.13c-13.74,3.22-27.74,5.66-40.95,10.78-6.56,2.35-13.85,5.28-17,12,18-10,39.35-9,59.05-12.86,3.08-1.65,4.43-5.45,7.69-6.91a8.71,8.71,0,0,1-1.16,2.42c-7.34,10.33-12.7,22.3-14.4,34.93l-.48.36a41.2,41.2,0,0,1-1-8.93c-12.41-2.59-25.78-2.68-37.62,2.28-3.6,1.69-7.81,4.43-7.91,8.86.17,3.52,3.37,6.22,6.7,6.79,15.36,3.47,30.93,6.1,46,10.59,11.78,3.38,23.67,7,36,7.53,13.3.51,26.83-6.45,33.73-17.89-.47,3.14-2.27,5.85-4.29,8.23-5.06,5.86-11.76,10.63-19.38,12.43a17.87,17.87,0,0,0,17,1.75c5.43-1.8,9.77-5.82,13.23-10.24,5.47-7.12,9.17-17.7,3.94-25.94-2,3.14-4.09,6.26-7,8.56,8.3-14.56,11.48-33.65,3.17-48.89a9.08,9.08,0,0,1,3.57,3.25,41.18,41.18,0,0,1,4.05-19.3c2.59-6.39,7-11.81,9.83-18.11a12.74,12.74,0,0,0,.74-9.37c-2.36-4.48-8-4.6-12.45-4.55A24.05,24.05,0,0,0,131.78,17.45Zm-109.3,63c-6,2.27-12.18,5.13-16.5,10.08-2.75,3.07-4.21,7.91-1.78,11.6,2.69,3.77,7.52,5.59,12,5.63-4.59-4.29-2.19-12.09,2.87-14.91,13.17-7.8,29.55-7.44,44-3.77,1.29-6.3,4.38-12,7.21-17.67C54.42,74.66,37.9,75,22.48,80.4Zm199,30.59c-5.69,11.8-5.66,25.6-2,38-5.42-3.14-11.63-5.23-18-4.79-8,.33-16.09,5.15-19.14,12.76-3.44,7.71-1.76,16.41.34,24.24,4.32,16.12,15.34,29.6,28.37,39.65a14.06,14.06,0,0,1-1.54-6c1.66,1.46,2.27,3.69,3.33,5.56,3.72,7,7.28,14.36,13.42,19.57a21.19,21.19,0,0,0,16.25,4.67c10-1.05,19.07-5.81,27.77-10.52-.78,3.26-5.79,3.35-6.61,6.13a72.69,72.69,0,0,0,44.6-10.44,47.32,47.32,0,0,0,16.44-15.72A23,23,0,0,0,326,193.38a27,27,0,0,0-21.53-16.53c8.7-4.13,15.31-11.71,19.56-20.22a55.85,55.85,0,0,0,2.43-43.52c-3.86-8.76-11.15-16.82-20.81-18.93-6.8-1.59-13.7,1.71-18.34,6.56-.62-6.61-3.09-13.93-9.21-17.36-5.31-3.21-11.76-3-17.69-2.34A52.31,52.31,0,0,0,221.44,111Zm-137,79.63c-8,2.43-13,11.32-11.85,19.42.75,5.76,2.64,11.29,3.83,17-4.06-3.76-5.41-9.68-6.78-14.87-2.52,2-3.79,5.15-5,8-4.46,11.85-3.88,25.08-.12,37-2.27-1.84-3.24-4.61-4.33-7.21a25.58,25.58,0,0,0,1,18.14c4.61,10.95,14,19.21,24.27,24.73,13.07,6.64,29.17,8.69,42.79,2.46l.24-.67c-13-5.48-18.25-22.8-12.3-35.22,3.44-8.23,12.15-14.4,21.23-13.61a19,19,0,0,1,14.65,9l.83-.11c3.59-10,3.86-21.85-2-31.09-6.21-10-18.23-14.87-29.64-15.26,1.67,1.93,3.87,3.36,5.3,5.51-1.85-1.17-4.1-1.61-5.61-3.29-4.32-3-8.82-6.42-11-11.4,3.65,1.71,6.25,4.9,9.29,7.43l3.08-.36C115.87,192.48,98.58,185.79,84.39,190.62Zm124.42,35,.52,1c-4.41,3.11-8,8-8.57,13.48a48.37,48.37,0,0,1,10.84-14.7ZM375.16,235.7c-16.11,4.71-31.26,14.13-41,28-7,9.79-10.94,22.31-8.65,34.35,2.17,2.09,3.6,5.42,6.86,6,2,.51,4,1.69,6.15,1.09a33.62,33.62,0,0,1,7.2-1.81c-.76-7.14,4.37-13.48,10.49-16.47,11.78-6.4,27-4,37.27,4.23,4.56,3.74,8.44,8.84,8.88,14.92.77,4-3.32,7.43-1.4,11.21.71,4.6-.51,10-4.36,12.92.13.31.39.92.53,1.23,10.42,1.27,20.81,3,31.34,3.14,10.63.35,21.66-.6,31.43-5.1,9.14-5.26,17.19-13.3,20.1-23.68,4.48-16.32-.26-34.4-10.71-47.48-10.88-13.89-27.78-21.77-44.84-24.84C408.12,230.7,391.11,231,375.16,235.7Zm-153.92,4.05a66.11,66.11,0,0,0-22.87,13.82c6.35-3.52,12.18-7.89,18.56-11.37,2-1.09,4.56-1.61,5.47-3.95Zm-97.07,13.08c-4.76,3.57-7.09,9.52-7.8,15.26-1.17,10.14,4.62,21.1,14.28,24.88,3.11.86,6.83,1.65,9.75-.18-7.07-3.27-12.21-10.83-11.48-18.77.28-5.3,3.67-11.35,9.42-12a37.09,37.09,0,0,1,13.92,1.71c0-5.56-3.76-10.36-8.36-13.14C137.65,247.61,129.42,248,124.17,252.83Zm117.69,7.56c-14.83,7-27.33,17.86-41.23,26.4,8.66-3.22,15.74-9.41,23.37-14.45a29.44,29.44,0,0,0,14.73-2.41c.75-.5,2.25-.51,2.44-1.66-3.23.86-6.37,2.1-9.68,2.61-1.49-.1-4.12,1.3-4.89-.46,7.74-4.61,15.38-9.76,24.16-12.2C247.62,257.82,244.69,259.26,241.86,260.39Zm24.45,6.06c-8.37,12.15-17.54,24.23-30.35,32-6.07,4-13.16,6.85-20.55,6.12-5.5.3-10.06-2.88-14.52-5.61a43.32,43.32,0,0,0,.22,5c2.94,6.38,4.88,13.34,8.94,19.2-.76-4.35,3.95-4.08,6.83-3.63,5.33,3.94,9.55,9.12,13.41,14.44,1.69,4,5.29,7.73,3.43,12.36a22.36,22.36,0,0,1-5.1.25l.28,2.75a37.37,37.37,0,0,0,4.19,4.25c-3.61-1.5-6.25-4.6-9.76-6.13-5.54.69-9.88,5-15.3,6.24-1.95,2.18-4.86,2.94-7.18,4.6l.12,1.13a38.47,38.47,0,0,1,13.38,3.93l2.28.29c2.66,1.58,5.76,2.1,8.43,3.64,4.71,1,8.77,3.83,13.55,4.65.94,2.22,4,2.09,6,2.8,3.81,2.15,8.07,3.37,11.93,5.43,4.73,1.34,9,4.73,14.17,4.32,1.19-3.36,3.94-5.85,5.17-9.19.59-1.75,2.38-2.69,3.05-4.38.61-1.48,1-3.42,2.88-3.74a5.26,5.26,0,0,0-.28-3c-.65,2.19-5.33,2.28-3.67-.77a41.72,41.72,0,0,0,7.46-2.6c3.65-1.3,7.56-1.55,11.19-2.92,1.5-.91,4.5.36,4.79-1.94-1.84-.84-4.16.06-5.88-1.21,18.26-1.65,35.75,6.06,54,4.6,8.45-3.75,16-10.84,18.38-20,2.18-5.47,1.27-11.5.86-17.2-1-1.94-1.83-4-2.87-5.91-3.8-6.3-10.82-10.89-18.32-10.55a34.32,34.32,0,0,1-6.05.86,29.29,29.29,0,0,1,2.9,1.94,13.18,13.18,0,0,1,3.07.78c-1.63.05-3.39.55-4.89-.3-2.2-1-4.83.14-7-1a9,9,0,0,0-2.83-.78c.1.94.21,1.89.32,2.83-2.33-1.11-3.34-3.65-5.13-5.36-1.49-1.85-3.52-3.1-5.14-4.8-1.8-.21-2.9-1.75-4.31-2.71-3.32-2.23-7.12-3.63-10.51-5.74a8.27,8.27,0,0,0-3.34-1.19,6.54,6.54,0,0,0-4-2.18c-8-4.38-16.65-7.62-23.77-13.4-1-1-1.9-2.23-3.46-2.28-2-1.72-3.32-4.1-5.24-5.91ZM357.52,289c-5.34,2.71-9.81,8-9.41,14.28,3.23.32,6.32,1.38,9.46,2,2.41-6.28,9.52-9.65,16-8.82a37.42,37.42,0,0,1,24.59,13.44l.88.81a3.29,3.29,0,0,0,.4-3.56c.75-3.28-1.32-6.43-2.9-9.16C388.18,285.94,370.37,282.56,357.52,289Zm9.83,20.13c-.9.35-2.23.12-2.69,1.17a18.89,18.89,0,0,0,8.33-2c.91-.66,2.6-.9,2.5-2.37C372.85,307.23,370.26,308.68,367.35,309.15ZM99.63,336.62c9.6-6,22.6-4.91,31.76,1.45,8.76,5.35,14.18,14.91,16.46,24.71,4,16.53,8.25,33,13.39,49.24,4.36,15.37,11.39,29.71,17.75,44.29,2.82,6.88,1.3,15.22-4.41,20.13a25.82,25.82,0,0,0,10.61-3.68c7.22-4.46,10.77-12.52,14.06-20,1.9-5.38,4.83-10.92,3.51-16.79-2.11-9.27-6.16-18.48-13.26-25-1-.79-2-1.91-3.36-1.64-.43,1.28,0,3.51-1.88,3.73.81-4.39.11-8.83-.32-13.21-1.56,3.09-2.12,7-5,9.16,2.45-5.35,2.81-11.34,3.64-17.09.81-11.71.46-23.73-3.11-35a61.08,61.08,0,0,0-20.29-30.67c-9.18-7.07-21.42-10.27-32.83-7.86A39.4,39.4,0,0,0,99.63,336.62Zm112.72-16.54A25.71,25.71,0,0,0,217.42,334c2.78,3.17,5,7.06,8.73,9.18,1.87,1,4,2.67,6.14,1.53.38-2.36-1.14-4.49-2.07-6.53a76.9,76.9,0,0,0-11.32-14.58C217,322,215.21,319.39,212.35,320.08ZM96.47,342c-5.08,6.62-7.74,14.85-9.16,23-2.76,19.2,1.94,38.71,10.12,56.05,1.18,2.08,2.09,4.5,4,6.05a100,100,0,0,0,38.88,13.26c9,.75,18.61,1,27-3.06-10.56-24.88-16-51.47-23.67-77.3a38.12,38.12,0,0,0-12.52-18.69C121.48,333.19,105.6,333.12,96.47,342Zm102.14,20.39c.08.58.26,1.73.35,2.3,3,3.17,6.26,6.32,10.47,7.85,3.88.11,6.5-3.61,10.07-4.72l-2.84-1.13c-3.83-.09-6.49-3.78-10.4-3.26C204,361.92,201.17,362.52,198.61,362.34Zm53.56,19.2a3.89,3.89,0,0,1-3,1.16l.12,1.71-2.81.62c6.87,3.56,14.77,2.37,22.22,2.45-2-1-4.33-1.27-6.08-2.75a20,20,0,0,0-4.52-1.26C255.89,383.47,254.39,380.94,252.17,381.54ZM185.55,397c.91,3.18.81,6.51,1.34,9.75a41.11,41.11,0,0,1,13.74,16.15c4,7.48,6.26,16.67,3.28,24.9,6.15-1.81,8.87-8.95,9-14.84,1-11-5.12-21.23-12.88-28.49A29.67,29.67,0,0,0,185.55,397ZM104,432a99.46,99.46,0,0,0,21.89,26.72c9.73,8.05,20.89,14.94,33.4,17.5,5.34,1,11.69.49,15.38-4,4.17-5.46,3.11-13,.35-18.87-2.35-5-4.45-10.16-7.13-15-5.1,4.13-12.08,4.57-18.37,5C133.73,443.27,118.09,439,104,432Z"/><path class="cls-2" d="M100.44,69.56c7.77-2.16,16.36-2.92,23.93.39,7.72,3,14.3,9.53,16.42,17.65,1.22,4.58.33,9.37-.88,13.85-.18-7.21-.27-15-4.88-21-5.43-7.38-14.88-10.26-23.68-10.73C107.72,69.22,104.07,70.05,100.44,69.56Z"/><path class="cls-2" d="M253.12,118.63c3.64-5.54,8.4-12.75,16-12.11,4.9,2.92,4.17,9.56,3.66,14.41a84.15,84.15,0,0,1-13.46,34.66c3.54.76,6.9,2.13,10.39,3a89.47,89.47,0,0,1,14.47-33.83c3.18-3.72,6.74-8.8,12.27-8.28,3.91.62,4.82,5.08,5.06,8.39.35,10.06-3.53,19.84-9,28.11l.6,1.8c-.67-3-1.88.17-2.6,1.06-2.82,3.71-6.4,6.7-9.79,9.85a24.21,24.21,0,0,1,5.8,8.35c-2.55-1.79-4.29-4.49-6.81-6.32-12.28-9.79-28.93-12.29-44.15-10.07,3.29-2.57,7.81-1.85,11.6-3.09C243.26,142.51,247.22,129.37,253.12,118.63ZM260.6,112c-6.76,7.7-10.56,17.57-12.5,27.53a35.2,35.2,0,0,0-.06,12.07c.28,1.36.48,4.35,2.73,2.74-1.61-6.63,1.7-15.41,8.83-17.06,4.08.12,3.51,5.16,3.17,8,2.25-3,2.94-6.82,4.36-10.25,2-6.83,4.12-13.84,3.83-21-.06-2.36-.91-5.38-3.57-5.93C264.57,108,262.38,110.08,260.6,112Zm30,9c-5.13,5.13-8.82,11.48-12.11,17.89-1.56,3.35-3.38,6.66-4.08,10.32,1.91-2.61,4.89-5.54,8.36-3.56,3.32,6-1.15,12.47-4.72,17.21l.44,1.36c2.63-.79,4.56-2.84,6.49-4.68A55.79,55.79,0,0,0,298,135.05c1.13-4.9,1.92-10.06.57-15l-2-1.76A8.91,8.91,0,0,0,290.56,121.06Z"/><path class="cls-2" d="M199.69,163.18a20.13,20.13,0,0,1,14.87-1.61c-3.49,1-7.13,1.2-10.57,2.35.85,12.86,7.93,24.65,17.32,33.2a66.06,66.06,0,0,0,43.14,16.73c14.72.29,29.24-4.54,41.58-12.42,1.15-.86,2.63-1.4,3.4-2.7a38.69,38.69,0,0,0-9.17-7.54c5.15-.12,9.4,3.91,12.29,7.8,2.4,3.11,3.81,7.15,2.68,11a28.8,28.8,0,0,0-4.82-9.77,100.81,100.81,0,0,1-25.11,13.31c-7.86,5.44-14.9,12-22.6,17.63-7.31,5-16,9.75-25.17,8-6.52-.91-12.07-5.31-15.32-10.91-6.66-10.52-8-23.2-10.42-35.14a19.82,19.82,0,0,0-3-7.54,60.17,60.17,0,0,1-6.66-20.56c-3.62,1.06-6.63,3.45-9.64,5.63C193.21,167,196.66,164.86,199.69,163.18Zm15.13,31.94a15,15,0,0,0,1,3.7c.51,1.24-.68,3.45,1.09,3.93.33,1.27-.78,3.49,1,4-.46,3.47,2,6.4,2.07,9.82a6.29,6.29,0,0,0,4.27-.94C229,215.39,234,215,238.4,217a85.52,85.52,0,0,1,5.76,6.43c2.15.07,4.3.11,6.45.22,2.61,1.57,6.19,1.41,8.34,4l2.82-.1c2-1.75,3.93-3.67,6.11-5.27,2.94-2.15,5.07-5.34,8.54-6.74-7.82,1.78-16.06,1-24.08.86-1.44-1.16-3.34-.78-5-1-6.76-3.91-14.87-5.28-21.21-10A40.28,40.28,0,0,1,214.82,195.12Zm7.3,23.69-.87,2c2.25,5.6,5.61,11.64,11.52,13.89,2.19,2,5.77,2.14,8.67,2.22,6.46.21,12.55-2.57,17.75-6.14a20.78,20.78,0,0,0-17.95-4.09c-2.33.51-4.42,1.84-6.8,2.15A13.85,13.85,0,0,1,241,224.3c0-.37-.08-1.11-.11-1.47a6.69,6.69,0,0,1-2.06-2.11C234.25,216.78,227.53,216.41,222.12,218.81Z"/><path class="cls-2" d="M237.57,165.36c5.56-4.22,13.12-4.33,19.67-2.82,8,1.77,16.27,5.36,20.78,12.51a11.77,11.77,0,0,1-3,15.48c-7.14,5.42-16.93,4.43-25,1.91-.87-.8-1.95-3.07-3.11-1.26-5.65-2.32-11.09-6.24-13.29-12.14A11.82,11.82,0,0,1,237.57,165.36Z"/><path class="cls-2" d="M92.6,233.05a20.61,20.61,0,0,1,4.58,5.43c4.44,6.1,8.83,12.26,14.23,17.56-6.64-3.33-11.22-9.61-15.6-15.42C94.5,238.26,92.1,235.94,92.6,233.05Z"/><path class="cls-2" d="M76.55,254.15c2,.23,3.51,1.63,5.21,2.53,8.33,5.08,16.91,10.81,26.83,11.91-8.67.49-17-3.06-24.39-7.31C81.41,259.29,77.75,257.55,76.55,254.15Z"/><path class="cls-2" d="M402.67,264.94c3.78,8.89,5.05,18.56,6.16,28.08.29,7.67,1.13,15.71-1.88,23A186.81,186.81,0,0,0,402.67,264.94Z"/><path class="cls-2" d="M83,275.38c3.88,1.22,7.58,3,11.59,3.87,4.56,1.11,9.28,1.15,13.94,1.45-6,1.83-12.5,1.35-18.51-.14C87.24,279.78,83.59,278.72,83,275.38Z"/><path class="cls-2" d="M240.1,312.86c1.76-2.95,4.59-6,8.36-5.48,9.09,1,15.38,8.11,22,13.63,3.87,5.36,8.62,11,8.55,18,.37,2.4-1.51,4.16-2.53,6.14-5.84,3.21-12-.39-17.18-3.17-2.47-1-4-3.27-5.91-4.95-2.15-.73-3.38-2.63-4.79-4.26-3.56-2.66-4.93-7.08-7.36-10.65C240.79,319,239.33,316.06,240.1,312.86Zm4.49-2.77a4.71,4.71,0,0,0-2.36,4c-.48,5.17,2.64,9.63,5.52,13.61a62.11,62.11,0,0,0,16.84,14.29c3.05,1.44,6.83,3.22,10.1,1.46,3.14-2.38,1.83-6.89.49-9.94-4.16-9-11.56-16.11-19.67-21.57C252.28,310.05,248.23,308.39,244.59,310.09Z"/><path class="cls-3" d="M221.44,111A52.31,52.31,0,0,1,260.37,81c5.93-.7,12.38-.87,17.69,2.34,6.12,3.43,8.59,10.75,9.21,17.36,4.64-4.85,11.54-8.15,18.34-6.56,9.66,2.11,16.95,10.17,20.81,18.93A55.85,55.85,0,0,1,324,156.63c-4.25,8.51-10.86,16.09-19.56,20.22A27,27,0,0,1,326,193.38a23,23,0,0,1-1.22,20.75,47.32,47.32,0,0,1-16.44,15.72,72.69,72.69,0,0,1-44.6,10.44c.82-2.78,5.83-2.87,6.61-6.13-8.7,4.71-17.78,9.47-27.77,10.52A21.19,21.19,0,0,1,226.29,240c-6.14-5.21-9.7-12.6-13.42-19.57-1.06-1.87-1.67-4.1-3.33-5.56a14.06,14.06,0,0,0,1.54,6c-13-10.05-24.05-23.53-28.37-39.65-2.1-7.83-3.78-16.53-.34-24.24,3-7.61,11.11-12.43,19.14-12.76,6.33-.44,12.54,1.65,18,4.79C215.78,136.59,215.75,122.79,221.44,111Zm31.68,7.64c-5.9,10.74-9.86,23.88-6,36-3.79,1.24-8.31.52-11.6,3.09,15.22-2.22,31.87.28,44.15,10.07,2.52,1.83,4.26,4.53,6.81,6.32a24.21,24.21,0,0,0-5.8-8.35c3.39-3.15,7-6.14,9.79-9.85.72-.89,1.93-4.05,2.6-1.06l-.6-1.8c5.51-8.27,9.39-18,9-28.11-.24-3.31-1.15-7.77-5.06-8.39-5.53-.52-9.09,4.56-12.27,8.28a89.47,89.47,0,0,0-14.47,33.83c-3.49-.9-6.85-2.27-10.39-3a84.15,84.15,0,0,0,13.46-34.66c.51-4.85,1.24-11.49-3.66-14.41C261.52,105.88,256.76,113.09,253.12,118.63Zm-53.43,44.55c-3,1.68-6.48,3.84-7.22,7.5,3-2.18,6-4.57,9.64-5.63a60.17,60.17,0,0,0,6.66,20.56,19.82,19.82,0,0,1,3,7.54c2.42,11.94,3.76,24.62,10.42,35.14,3.25,5.6,8.8,10,15.32,10.91,9.19,1.76,17.86-3,25.17-8,7.7-5.65,14.74-12.19,22.6-17.63a100.81,100.81,0,0,0,25.11-13.31,28.8,28.8,0,0,1,4.82,9.77c1.13-3.9-.28-7.94-2.68-11-2.89-3.89-7.14-7.92-12.29-7.8a38.69,38.69,0,0,1,9.17,7.54c-.77,1.3-2.25,1.84-3.4,2.7-12.34,7.88-26.86,12.71-41.58,12.42a66.06,66.06,0,0,1-43.14-16.73c-9.39-8.55-16.47-20.34-17.32-33.2,3.44-1.15,7.08-1.4,10.57-2.35A20.13,20.13,0,0,0,199.69,163.18Zm37.88,2.18A11.82,11.82,0,0,0,233.64,179c2.2,5.9,7.64,9.82,13.29,12.14,1.16-1.81,2.24.46,3.11,1.26,8.07,2.52,17.86,3.51,25-1.91a11.77,11.77,0,0,0,3-15.48c-4.51-7.15-12.81-10.74-20.78-12.51C250.69,161,243.13,161.14,237.57,165.36Z"/><path class="cls-3" d="M222.12,218.81c5.41-2.4,12.13-2,16.73,1.91a6.69,6.69,0,0,0,2.06,2.11c0,.36.08,1.1.11,1.47a13.85,13.85,0,0,0-6.58,4.51c2.38-.31,4.47-1.64,6.8-2.15a20.78,20.78,0,0,1,17.95,4.09c-5.2,3.57-11.29,6.35-17.75,6.14-2.9-.08-6.48-.23-8.67-2.22-5.91-2.25-9.27-8.29-11.52-13.89Z"/><path class="cls-4" d="M402.37,306c.19-.51.57-1.54.75-2.05A42.28,42.28,0,0,1,401,317.19C399.05,313.41,403.14,310,402.37,306Z"/><path class="cls-2" d="M367.35,309.15c2.91-.47,5.5-1.92,8.14-3.16.1,1.47-1.59,1.71-2.5,2.37a18.89,18.89,0,0,1-8.33,2C365.12,309.27,366.45,309.5,367.35,309.15Z"/><path class="cls-4" d="M398.16,309.93c-.58-1.27-.39-2.7,1.28-2.75a3.29,3.29,0,0,1-.4,3.56Z"/><path class="cls-5" d="M214.82,195.12a40.28,40.28,0,0,0,11.27,10.3c6.34,4.68,14.45,6.05,21.21,10,1.7.17,3.6-.21,5,1,8,.16,16.26.92,24.08-.86-3.47,1.4-5.6,4.59-8.54,6.74-2.18,1.6-4.08,3.52-6.11,5.27l-2.82.1c-2.15-2.54-5.73-2.38-8.34-4-2.15-.11-4.3-.15-6.45-.22A85.52,85.52,0,0,0,238.4,217c-4.38-1.94-9.42-1.59-14.16-1.35a6.29,6.29,0,0,1-4.27.94c-.1-3.42-2.53-6.35-2.07-9.82-1.77-.51-.66-2.73-1-4-1.77-.48-.58-2.69-1.09-3.93A15,15,0,0,1,214.82,195.12Z"/><path class="cls-6" d="M266.31,266.45l1.75-.06c1.92,1.81,3.26,4.19,5.24,5.91,1.56.05,2.45,1.29,3.46,2.28,7.12,5.78,15.81,9,23.77,13.4a6.54,6.54,0,0,1,4,2.18,8.27,8.27,0,0,1,3.34,1.19c3.39,2.11,7.19,3.51,10.51,5.74,1.41,1,2.51,2.5,4.31,2.71,1.62,1.7,3.65,2.95,5.14,4.8,1.79,1.71,2.8,4.25,5.13,5.36-.11-.94-.22-1.89-.32-2.83a9,9,0,0,1,2.83.78c2.16,1.18,4.79,0,7,1,1.5.85,3.26.35,4.89.3a13.18,13.18,0,0,0-3.07-.78,29.29,29.29,0,0,0-2.9-1.94,34.32,34.32,0,0,0,6.05-.86c7.5-.34,14.52,4.25,18.32,10.55,1,1.93,1.83,4,2.87,5.91.41,5.7,1.32,11.73-.86,17.2-2.42,9.19-9.93,16.28-18.38,20-18.22,1.46-35.71-6.25-54-4.6,1.72,1.27,4,.37,5.88,1.21-.29,2.3-3.29,1-4.79,1.94-3.63,1.37-7.54,1.62-11.19,2.92a41.72,41.72,0,0,1-7.46,2.6c-1.66,3.05,3,3,3.67.77a5.26,5.26,0,0,1,.28,3c-1.85.32-2.27,2.26-2.88,3.74-.67,1.69-2.46,2.63-3.05,4.38-1.23,3.34-4,5.83-5.17,9.19-5.12.41-9.44-3-14.17-4.32-3.86-2.06-8.12-3.28-11.93-5.43-2-.71-5.06-.58-6-2.8-4.78-.82-8.84-3.64-13.55-4.65-2.67-1.54-5.77-2.06-8.43-3.64l-2.28-.29A38.47,38.47,0,0,0,201,359.42l-.12-1.13c2.32-1.66,5.23-2.42,7.18-4.6,5.42-1.28,9.76-5.55,15.3-6.24,3.51,1.53,6.15,4.63,9.76,6.13a37.37,37.37,0,0,1-4.19-4.25l-.28-2.75a22.36,22.36,0,0,0,5.1-.25c1.86-4.63-1.74-8.39-3.43-12.36-3.86-5.32-8.08-10.5-13.41-14.44-2.88-.45-7.59-.72-6.83,3.63-4.06-5.86-6-12.82-8.94-19.2a43.32,43.32,0,0,1-.22-5c4.46,2.73,9,5.91,14.52,5.61,7.39.73,14.48-2.16,20.55-6.12C248.77,290.68,257.94,278.6,266.31,266.45ZM240.1,312.86c-.77,3.2.69,6.17,1.14,9.28,2.43,3.57,3.8,8,7.36,10.65,1.41,1.63,2.64,3.53,4.79,4.26,1.94,1.68,3.44,3.95,5.91,4.95,5.18,2.78,11.34,6.38,17.18,3.17,1-2,2.9-3.74,2.53-6.14.07-7-4.68-12.66-8.55-18-6.62-5.52-12.91-12.63-22-13.63C244.69,306.87,241.86,309.91,240.1,312.86Z"/><path class="cls-4" d="M198.61,362.34c2.56.18,5.35-.42,7.65,1,3.91-.52,6.57,3.17,10.4,3.26l2.84,1.13c-3.57,1.11-6.19,4.83-10.07,4.72-4.21-1.53-7.47-4.68-10.47-7.85C198.87,364.07,198.69,362.92,198.61,362.34Z"/><path class="cls-4" d="M252.17,381.54c2.22-.6,3.72,1.93,5.88,1.93a20,20,0,0,1,4.52,1.26c1.75,1.48,4.06,1.78,6.08,2.75-7.45-.08-15.35,1.11-22.22-2.45l2.81-.62-.12-1.71A3.89,3.89,0,0,0,252.17,381.54Z"/><path class="cls-4" d="M375.16,235.7c15.95-4.69,33-5,49.3-2.32,17.06,3.07,34,11,44.84,24.84,10.45,13.08,15.19,31.16,10.71,47.48-2.91,10.38-11,18.42-20.1,23.68-9.77,4.5-20.8,5.45-31.43,5.1-10.53-.12-20.92-1.87-31.34-3.14-.14-.31-.4-.92-.53-1.23,3.85-2.93,5.07-8.32,4.36-12.92a42.28,42.28,0,0,0,2.15-13.26c-.18.51-.56,1.54-.75,2.05-.44-6.08-4.32-11.18-8.88-14.92-10.26-8.24-25.49-10.63-37.27-4.23-6.12,3-11.25,9.33-10.49,16.47a33.62,33.62,0,0,0-7.2,1.81c-2.12.6-4.14-.58-6.15-1.09-3.26-.54-4.69-3.87-6.86-6-2.29-12,1.61-24.56,8.65-34.35C343.9,249.83,359.05,240.41,375.16,235.7Zm27.51,29.24A186.81,186.81,0,0,1,407,316c3-7.28,2.17-15.32,1.88-23C407.72,283.5,406.45,273.83,402.67,264.94Z"/><path class="cls-4" d="M357.52,289c12.85-6.46,30.66-3.08,39,9,1.58,2.73,3.65,5.88,2.9,9.16-1.67.05-1.86,1.48-1.28,2.75a37.42,37.42,0,0,0-24.59-13.44c-6.48-.83-13.59,2.54-16,8.82-3.14-.63-6.23-1.69-9.46-2C347.71,297,352.18,291.73,357.52,289Z"/><path class="cls-4" d="M99.63,336.62a39.4,39.4,0,0,1,26.7-18.21c11.41-2.41,23.65.79,32.83,7.86a61.08,61.08,0,0,1,20.29,30.67c3.57,11.27,3.92,23.29,3.11,35-.83,5.75-1.19,11.74-3.64,17.09,2.9-2.2,3.46-6.07,5-9.16.43,4.38,1.13,8.82.32,13.21,1.87-.22,1.45-2.45,1.88-3.73,1.4-.27,2.37.85,3.36,1.64,7.1,6.53,11.15,15.74,13.26,25,1.32,5.87-1.61,11.41-3.51,16.79-3.29,7.45-6.84,15.51-14.06,20a25.82,25.82,0,0,1-10.61,3.68c5.71-4.91,7.23-13.25,4.41-20.13-6.36-14.58-13.39-28.92-17.75-44.29-5.14-16.22-9.37-32.71-13.39-49.24-2.28-9.8-7.7-19.36-16.46-24.71C122.23,331.71,109.23,330.59,99.63,336.62Z"/><path class="cls-4" d="M185.55,397A29.67,29.67,0,0,1,200,404.45c7.76,7.26,13.84,17.51,12.88,28.49-.13,5.89-2.85,13-9,14.84,3-8.23.72-17.42-3.28-24.9a41.11,41.11,0,0,0-13.74-16.15C186.36,403.49,186.46,400.16,185.55,397Z"/><path class="cls-4" d="M96.47,342c9.13-8.83,25-8.76,34.6-.69A38.12,38.12,0,0,1,143.59,360c7.65,25.83,13.11,52.42,23.67,77.3-8.35,4.05-17.94,3.81-27,3.06a100,100,0,0,1-38.88-13.26c-1.9-1.55-2.81-4-4-6.05C89.25,403.66,84.55,384.15,87.31,365,88.73,356.8,91.39,348.57,96.47,342Z"/><path class="cls-4" d="M104,432c14.1,7,29.74,11.29,45.52,11.34,6.29-.42,13.27-.86,18.37-5,2.68,4.84,4.78,10,7.13,15,2.76,5.85,3.82,13.41-.35,18.87-3.69,4.49-10,5-15.38,4-12.51-2.56-23.67-9.45-33.4-17.5A99.46,99.46,0,0,1,104,432Z"/></g></g></svg>